<svg xmlns="http://www.w3.org/2000/svg" width="896" height="896" viewBox="0 0 896 896" role="img" aria-label="Geometry DSL rendering">
<defs><marker id="g-arrow" markerWidth="8" markerHeight="8" refX="7" refY="4" orient="auto-start-reverse" markerUnits="strokeWidth"><path d="M0,0 L8,4 L0,8 Z" fill="context-stroke"/></marker><mask id="g-region-21" x="0" y="0" width="896" height="896" maskUnits="userSpaceOnUse" maskContentUnits="userSpaceOnUse" style="mask-type:luminance"><rect x="0" y="0" width="896" height="896" fill="black"/><path d="M 548 548 L 598 548 L 598 498 L 548 498 Z" fill="white" fill-rule="evenodd"/></mask><mask id="g-region-23" x="0" y="0" width="896" height="896" maskUnits="userSpaceOnUse" maskContentUnits="userSpaceOnUse" style="mask-type:luminance"><rect x="0" y="0" width="896" height="896" fill="black"/><path d="M 548 498 L 598 498 L 598 448 L 548 448 Z" fill="white" fill-rule="evenodd"/></mask><mask id="g-region-25" x="0" y="0" width="896" height="896" maskUnits="userSpaceOnUse" maskContentUnits="userSpaceOnUse" style="mask-type:luminance"><rect x="0" y="0" width="896" height="896" fill="black"/><path d="M 448 548 L 548 548 L 548 448 L 448 448 Z" fill="white" fill-rule="evenodd"/></mask><mask id="g-region-27" x="0" y="0" width="896" height="896" maskUnits="userSpaceOnUse" maskContentUnits="userSpaceOnUse" style="mask-type:luminance"><rect x="0" y="0" width="896" height="896" fill="black"/><path d="M 448 698 L 598 698 L 598 548 L 448 548 Z" fill="white" fill-rule="evenodd"/></mask><mask id="g-region-29" x="0" y="0" width="896" height="896" maskUnits="userSpaceOnUse" maskContentUnits="userSpaceOnUse" style="mask-type:luminance"><rect x="0" y="0" width="896" height="896" fill="black"/><path d="M 598 698 L 848 698 L 848 448 L 598 448 Z" fill="white" fill-rule="evenodd"/></mask><mask id="g-region-31" x="0" y="0" width="896" height="896" maskUnits="userSpaceOnUse" maskContentUnits="userSpaceOnUse" style="mask-type:luminance"><rect x="0" y="0" width="896" height="896" fill="black"/><path d="M 448 448 L 848 448 L 848 48 L 448 48 Z" fill="white" fill-rule="evenodd"/></mask></defs>
<rect width="100%" height="100%" fill="white"/>
<path data-type="Path" data-smooth="false" data-closed="true" data-object-id="15" d="M 548 548 L 598 548 L 598 498 L 548 498 Z" fill="#f8fafc" fill-rule="evenodd" opacity="1" stroke="#94a3b8" stroke-width="1.5" stroke-linecap="round" stroke-linejoin="round"/>
<path data-type="Path" data-smooth="false" data-closed="true" data-object-id="16" d="M 548 498 L 598 498 L 598 448 L 548 448 Z" fill="#f1f5f9" fill-rule="evenodd" opacity="1" stroke="#94a3b8" stroke-width="1.5" stroke-linecap="round" stroke-linejoin="round"/>
<path data-type="Path" data-smooth="false" data-closed="true" data-object-id="17" d="M 448 548 L 548 548 L 548 448 L 448 448 Z" fill="#f8fafc" fill-rule="evenodd" opacity="1" stroke="#94a3b8" stroke-width="1.5" stroke-linecap="round" stroke-linejoin="round"/>
<path data-type="Path" data-smooth="false" data-closed="true" data-object-id="18" d="M 448 698 L 598 698 L 598 548 L 448 548 Z" fill="#f1f5f9" fill-rule="evenodd" opacity="1" stroke="#94a3b8" stroke-width="1.5" stroke-linecap="round" stroke-linejoin="round"/>
<path data-type="Path" data-smooth="false" data-closed="true" data-object-id="19" d="M 598 698 L 848 698 L 848 448 L 598 448 Z" fill="#f8fafc" fill-rule="evenodd" opacity="1" stroke="#94a3b8" stroke-width="1.5" stroke-linecap="round" stroke-linejoin="round"/>
<path data-type="Path" data-smooth="false" data-closed="true" data-object-id="20" d="M 448 448 L 848 448 L 848 48 L 448 48 Z" fill="#f1f5f9" fill-rule="evenodd" opacity="1" stroke="#94a3b8" stroke-width="1.5" stroke-linecap="round" stroke-linejoin="round"/>






<path data-type="Arc" data-sweep="ccw" data-object-id="38" d="M 548 548 A 50 50 0 0 0 598 498" fill="none" opacity="1" stroke="#f59e0b" stroke-width="3" stroke-linecap="round" stroke-linejoin="round"/>
<path data-type="Arc" data-sweep="ccw" data-object-id="39" d="M 598 498 A 50 50 0 0 0 548 448" fill="none" opacity="1" stroke="#f97316" stroke-width="3" stroke-linecap="round" stroke-linejoin="round"/>
<path data-type="Arc" data-sweep="ccw" data-object-id="40" d="M 548 448 A 100 100 0 0 0 448 548" fill="none" opacity="1" stroke="#ef4444" stroke-width="3" stroke-linecap="round" stroke-linejoin="round"/>
<path data-type="Arc" data-sweep="ccw" data-object-id="41" d="M 448 548 A 150 150 0 0 0 598 698" fill="none" opacity="1" stroke="#ec4899" stroke-width="3" stroke-linecap="round" stroke-linejoin="round"/>
<path data-type="Arc" data-sweep="ccw" data-object-id="42" d="M 598 698 A 250 250 0 0 0 848 448" fill="none" opacity="1" stroke="#8b5cf6" stroke-width="3" stroke-linecap="round" stroke-linejoin="round"/>
<path data-type="Arc" data-sweep="ccw" data-object-id="43" d="M 848 448 A 400 400 0 0 0 448 48" fill="none" opacity="1" stroke="#3b82f6" stroke-width="3" stroke-linecap="round" stroke-linejoin="round"/>
<text data-type="Text" data-object-id="22" x="565.2526" y="519.4193" text-anchor="middle" dominant-baseline="central" font-family="system-ui, sans-serif" font-size="12" fill="#64748b" opacity="1">1</text>
<text data-type="Text" data-object-id="24" x="565.2526" y="476.5807" text-anchor="middle" dominant-baseline="central" font-family="system-ui, sans-serif" font-size="12" fill="#64748b" opacity="1">1</text>
<text data-type="Text" data-object-id="26" x="510.6302" y="505.9427" text-anchor="middle" dominant-baseline="central" font-family="system-ui, sans-serif" font-size="16" fill="#64748b" opacity="1">2</text>
<text data-type="Text" data-object-id="28" x="540.9688" y="611.4766" text-anchor="middle" dominant-baseline="central" font-family="system-ui, sans-serif" font-size="20" fill="#64748b" opacity="1">3</text>
<text data-type="Text" data-object-id="30" x="695.3307" y="552.8177" text-anchor="middle" dominant-baseline="central" font-family="system-ui, sans-serif" font-size="26" fill="#64748b" opacity="1">5</text>
<text data-type="Text" data-object-id="32" x="605.8125" y="280.8125" text-anchor="middle" dominant-baseline="central" font-family="system-ui, sans-serif" font-size="34" fill="#64748b" opacity="1">8</text>
<text data-type="Text" data-object-id="44" x="228" y="668" text-anchor="middle" dominant-baseline="central" font-family="system-ui, sans-serif" font-size="40" fill="#334155" opacity="1">Fibonacci</text>
<text data-type="Text" data-object-id="45" x="228" y="728" text-anchor="middle" dominant-baseline="central" font-family="system-ui, sans-serif" font-size="24" fill="#94a3b8" opacity="1">1 1 2 3 5 8</text>
</svg>