<svg xmlns="http://www.w3.org/2000/svg" width="596" height="646" viewBox="0 0 596 646" role="img" aria-label="Geometry DSL rendering">
<defs><marker id="g-arrow" markerWidth="8" markerHeight="8" refX="7" refY="4" orient="auto-start-reverse" markerUnits="strokeWidth"><path d="M0,0 L8,4 L0,8 Z" fill="context-stroke"/></marker><mask id="g-region-14" x="0" y="0" width="596" height="646" maskUnits="userSpaceOnUse" maskContentUnits="userSpaceOnUse" style="mask-type:luminance"><rect x="0" y="0" width="596" height="646" fill="black"/><path d="M 198 398 L 398 398 L 398 598 L 198 598 Z" fill="white" fill-rule="evenodd"/></mask><mask id="g-region-16" x="0" y="0" width="596" height="646" maskUnits="userSpaceOnUse" maskContentUnits="userSpaceOnUse" style="mask-type:luminance"><rect x="0" y="0" width="596" height="646" fill="black"/><path d="M 198 398 L 198 248 L 48 248 L 48 398 Z" fill="white" fill-rule="evenodd"/></mask><mask id="g-region-18" x="0" y="0" width="596" height="646" maskUnits="userSpaceOnUse" maskContentUnits="userSpaceOnUse" style="mask-type:luminance"><rect x="0" y="0" width="596" height="646" fill="black"/><path d="M 398 398 L 198 248 L 348 48 L 548 198 Z" fill="white" fill-rule="evenodd"/></mask></defs>
<rect width="100%" height="100%" fill="white"/>
<path data-type="Path" data-smooth="false" data-closed="true" data-object-id="6" d="M 198 398 L 398 398 L 398 598 L 198 598 Z" fill="#dbeafe" fill-rule="evenodd" opacity="1" stroke="#3b82f6" stroke-width="1.5" stroke-linecap="round" stroke-linejoin="round"/>
<path data-type="Path" data-smooth="false" data-closed="true" data-object-id="9" d="M 198 398 L 198 248 L 48 248 L 48 398 Z" fill="#dcfce7" fill-rule="evenodd" opacity="1" stroke="#22c55e" stroke-width="1.5" stroke-linecap="round" stroke-linejoin="round"/>
<path data-type="Path" data-smooth="false" data-closed="true" data-object-id="12" d="M 398 398 L 198 248 L 348 48 L 548 198 Z" fill="#ede9fe" fill-rule="evenodd" opacity="1" stroke="#8b5cf6" stroke-width="1.5" stroke-linecap="round" stroke-linejoin="round"/>



<path data-type="Path" data-smooth="false" data-closed="true" data-object-id="13" d="M 198 398 L 398 398 L 198 248 Z" fill="#fef3c7" fill-rule="evenodd" opacity="1" stroke="#d97706" stroke-width="2" stroke-linecap="round" stroke-linejoin="round"/>
<g data-type="Point" data-object-id="1" opacity="1" fill="#000000" stroke="#000000"><circle cx="198" cy="398" r="2"/><text x="183.32" y="441.8" text-anchor="middle" dominant-baseline="central" font-family="system-ui, sans-serif" font-size="28" fill="#000000" stroke="none">A</text></g>
<g data-type="Point" data-object-id="2" opacity="1" fill="#000000" stroke="#000000"><circle cx="398" cy="398" r="2"/><text x="412.68" y="420.8" text-anchor="middle" dominant-baseline="central" font-family="system-ui, sans-serif" font-size="28" fill="#000000" stroke="none">B</text></g>
<g data-type="Point" data-object-id="3" opacity="1" fill="#000000" stroke="#000000"><circle cx="198" cy="248" r="2"/><text x="183.32" y="225.2" text-anchor="middle" dominant-baseline="central" font-family="system-ui, sans-serif" font-size="28" fill="#000000" stroke="none">C</text></g>
<text data-type="Text" data-object-id="15" x="298" y="498" text-anchor="middle" dominant-baseline="central" font-family="system-ui, sans-serif" font-size="30" fill="#1d4ed8" opacity="1">16</text>
<text data-type="Text" data-object-id="17" x="116.75" y="323" text-anchor="middle" dominant-baseline="central" font-family="system-ui, sans-serif" font-size="24" fill="#15803d" opacity="1">9</text>
<text data-type="Text" data-object-id="19" x="373" y="223" text-anchor="middle" dominant-baseline="central" font-family="system-ui, sans-serif" font-size="30" fill="#6d28d9" opacity="1">25</text>
<path data-type="Mark" data-kind="right" data-object-id="20" d="M 210 398 L 210 386 L 198 386" fill="none" opacity="1" stroke="#dc2626" stroke-width="1" stroke-linecap="round" stroke-linejoin="round"/>
</svg>